HIERARCHY
ROOT Hips
{
  OFFSET 0 0 0
  CHANNELS 6 Xposition Yposition Zposition Zrotation Xrotation Yrotation
  JOINT Spine
  {
    OFFSET 0 10.1816 0.131521
    CHANNELS 3 Zrotation Xrotation Yrotation
    JOINT Spine1
    {
      OFFSET 0 10.0835 -1.0008
      CHANNELS 3 Zrotation Xrotation Yrotation
      JOINT Spine2
      {
        OFFSET 0 9.10001 -1.37342
        CHANNELS 3 Zrotation Xrotation Yrotation
        JOINT Neck
        {
          OFFSET 0 16.6717 -2.51617
          CHANNELS 3 Zrotation Xrotation Yrotation
          JOINT Head
          {
            OFFSET 0 9.61788 1.68501
            CHANNELS 3 Zrotation Xrotation Yrotation
            End Site
            {
              OFFSET 0 0 0
            }
          }
        }
        JOINT LeftShoulder
        {
          OFFSET 4.57045 10.946 -2.62799
          CHANNELS 3 Zrotation Xrotation Yrotation
          JOINT LeftArm
          {
            OFFSET 10.5924 -0.524583 -2.23212
            CHANNELS 3 Zrotation Xrotation Yrotation
            JOINT LeftForeArm
            {
              OFFSET 27.8415 -8.94286e-05 3.74589e-05
              CHANNELS 3 Zrotation Xrotation Yrotation
              JOINT LeftHand
              {
                OFFSET 28.3288 -1.74407e-05 3.78045e-05
                CHANNELS 3 Zrotation Xrotation Yrotation
                End Site
                {
                  OFFSET 0 0 0
                }
              }
            }
          }
        }
        JOINT RightShoulder
        {
          OFFSET -4.56997 10.9462 -2.62802
          CHANNELS 3 Zrotation Xrotation Yrotation
          JOINT RightArm
          {
            OFFSET -10.5928 -0.524798 -2.2321
            CHANNELS 3 Zrotation Xrotation Yrotation
            JOINT RightForeArm
            {
              OFFSET -27.8415 -3.30792e-05 1.16763e-05
              CHANNELS 3 Zrotation Xrotation Yrotation
              JOINT RightHand
              {
                OFFSET -28.3288 0 5.5816e-05
                CHANNELS 3 Zrotation Xrotation Yrotation
                End Site
                {
                  OFFSET 0 0 0
                }
              }
            }
          }
        }
      }
    }
  }
  JOINT LeftUpLeg
  {
    OFFSET 8.20778 -6.75171 -1.59956
    CHANNELS 3 Zrotation Xrotation Yrotation
    JOINT LeftLeg
    {
      OFFSET 0 -44.3705 0.284643
      CHANNELS 3 Zrotation Xrotation Yrotation
      JOINT LeftFoot
      {
        OFFSET 0 -44.4279 -2.98219
        CHANNELS 3 Zrotation Xrotation Yrotation
        JOINT LeftToeBase
        {
          OFFSET 0 -8.72867 10.7106
          CHANNELS 3 Zrotation Xrotation Yrotation
          End Site
          {
            OFFSET 0 0 0
          }
        }
      }
    }
  }
  JOINT RightUpLeg
  {
    OFFSET -8.2078 -6.75166 -1.59956
    CHANNELS 3 Zrotation Xrotation Yrotation
    JOINT RightLeg
    {
      OFFSET 0 -44.3705 0.286156
      CHANNELS 3 Zrotation Xrotation Yrotation
      JOINT RightFoot
      {
        OFFSET 0 -44.4277 -2.98379
        CHANNELS 3 Zrotation Xrotation Yrotation
        JOINT RightToeBase
        {
          OFFSET 0 -8.72867 10.7106
          CHANNELS 3 Zrotation Xrotation Yrotation
          End Site
          {
            OFFSET 0 0 0
          }
        }
      }
    }
  }
}
MOTION
Frames: 6
Frame Time:	0.0333333
137.139 88.2124  60.898 -3.13914   2.9178  -148.86 -4.90423  14.6926  7.19629 -0.408517  -4.01604   1.92334 -0.307826 -0.403708   3.43232 -4.47712  3.28936  2.56987 -4.44022  5.92874  6.12587  -9.62716 -0.345444   5.84481 -62.2485  7.50086 -26.3123 -2.33874  1.17727  -119.51  2.78112  15.6332 -4.49719 -3.63687  1.08397  13.8177 62.6992 20.4582 31.8113  0.143727 -0.476598   119.818 -6.59888 -1.43881  6.29381  25.4082 -40.2923  18.0788  3.65689  57.6442 -3.09853   -16.02  9.15618 -4.91762  5.99556 -8.92452 0.275442 -23.1024 0.671618 -14.7384 -0.478313   47.2611  0.780688  23.5059 -31.8374  9.05111  3.02616  1.02719 -2.58532 
136.107 88.7229 61.3652 -2.93647  3.52619 -152.109 -4.52649  14.4189   8.2325 -0.23014 -4.24851  1.81881  -0.51991 -0.749942   3.54721 -4.19923  4.19452   2.1327 -5.19427  5.96882  7.00112 -9.22642 -1.61549   6.7944 -62.1735  6.92303 -25.4137 -2.40073 0.995949 -120.578  2.93588  15.8718 -3.65655 -3.54432 0.800234   14.046  63.443  19.059 31.2762 -0.0349244   -1.03309    119.694 -6.30399 -1.38453  5.99366  27.4977 -39.8878  19.7174  3.83189   59.295 -3.24771 -16.2751  12.4107 -5.86221  5.99287 -8.33224 0.220745 -23.4405  1.63983 -15.7059 -0.392071   42.5969   0.71973  22.4024 -30.2965  8.05009  3.39148 0.446283 -2.76883 
  134.9 89.6308 61.9776 -1.88029   3.5999 -155.248 -3.95976  13.4624  8.38418 0.261281 -4.34755   1.3622 -0.668901 -0.874733   3.28438  -4.289 5.55736 1.69431 -5.62343  5.73536  7.78025 -8.72291 -2.86274  7.08315 -61.9048  5.64101  -25.686   -2.518  0.96007 -121.614  3.83951  15.7379 -3.52783 -3.71483  1.05171  13.9572 63.9465 17.5625 31.0321 0.0143688     -1.24   119.884  -6.7162 -1.83158  5.81887  29.5963 -39.0718  21.4284  3.81302  59.1246 -3.23151 -16.7189  14.4193  -7.1404  5.98849  -7.2937 0.273736 -23.6269  1.74916 -15.9097 -0.325849   38.4659  0.676696   22.703 -27.3104  8.28078   3.16069 -0.764883  -2.58607 
 133.76 90.7869 62.6297 -0.632734   2.93884  -157.983 -4.17769  12.2677  8.25824 0.202826 -4.14788 0.907531 -0.715425 -0.804254   2.90874 -4.4982 6.63321 1.28511 -6.21891  5.47276  8.86009 -7.79146 -3.84265  6.80197 -61.8262  3.84214 -26.9872 -2.45729 0.855566 -122.524  5.17315  15.3532 -3.65486 -3.96776  1.18072  13.7089 64.3519 16.2726 31.6263 0.234412  -1.4104   120.13 -7.54024 -2.72932  5.62681  30.9068 -37.8171  22.9683  3.60848  57.1594 -3.05776 -17.0907  14.7589 -8.52532  5.98256 -6.21789 0.365082 -23.5714  1.52446 -16.6596 -0.260206   33.7153  0.493997 22.5826 -23.151 7.58925  3.11965 -2.83381 -2.55394 
132.913 91.7009 63.4348 0.812647  1.95481 -161.721 -5.02371   11.128  8.29368 -0.34938  -3.4609 0.633882 -0.715391 -0.458655   2.80966 -4.76512   7.2693 0.975736 -6.69219  5.06699  10.0253 -6.75289 -4.33726    6.063  -61.635  1.95586 -29.0051 -2.44654 0.727503 -123.359  6.66209  14.7509 -3.95458 -4.29069  1.27139   13.746 64.5239 15.0567 33.2064 0.436474 -1.60271  120.455 -8.56192 -3.65452  5.28707  32.2372 -35.8494  24.4663  3.36719  54.5376 -2.85796 -17.5653  12.9256 -9.26695  5.49359  -5.6893 0.397374 -23.6814 0.412547 -18.4579  -0.237801    29.4758 -0.0169555  21.8802 -19.3297  5.66472  4.02568 -4.42019 -2.53241 
132.273 92.0708 64.4743  2.10205  1.13468 -164.611 -5.78291  10.4527  7.91455 -0.88592 -2.52109 0.210488  -0.388941 -0.0683599    2.70798 -5.16029  7.48709  1.10606 -6.64367  4.98601  10.8692 -6.49427 -4.07829  4.88218 -60.9205 0.496266   -31.24 -2.51087 0.599898 -124.291  8.06111  13.9663 -4.20341 -4.3435 1.26524 14.1531 63.8881 13.5047 35.3813 0.231494 -1.63578  120.798 -9.77821 -4.63975   5.0727  32.7569 -34.2048  24.7981  3.15474  51.9113 -2.68778 -17.8335  9.39589 -9.57474  4.79294 -5.50901 0.229922 -23.5763 -1.45463 -19.5297 -0.234966   27.6639  0.102918  21.0006 -17.1497   4.1852  4.80132 -4.98911 -2.34692 
